<?xml version="1.0" encoding="utf-8"?>
<!-- Generator: Adobe Illustrator 27.7.0, SVG Export Plug-In . SVG Version: 6.00 Build 0)  -->
<svg version="1.1" id="Layer_1" xmlns="http://www.w3.org/2000/svg" xmlns:xlink="http://www.w3.org/1999/xlink" x="0px" y="0px"
	 viewBox="0 0 128 128" style="enable-background:new 0 0 128 128;" xml:space="preserve">
<style type="text/css">
	.st0{fill:#CFE02D;}
	.st1{fill:#272F38;}
	.st2{fill:#FFFFFF;}
</style>
<rect class="st0" width="128" height="128"/>
<g>
	<path class="st1" d="M88.2,24c-7.4,0-14.5,1.1-21.2,3.2c-6.8,2.1-13.1,5.2-18.8,9.2c-2.8,1.9-5.5,4.1-8,6.4
		c-6,5.5-11,12.1-14.7,19.3l15.6,10.9c1.9-4.1,4.3-7.9,7.1-11.4c5.1-6.1,11.5-11.1,18.8-14.4c6.5-2.9,13.6-4.5,21.2-4.5h9.4V24.6V24
		H88.2z"/>
	<path class="st1" d="M93.6,86.9c-1.6-1.2-3.5-1.7-5.4-1.7c-3,0-5.9,1.4-7.7,4c-1.2,1.6-1.7,3.5-1.7,5.4c0,2.9,1.4,5.8,3.9,7.6
		l0.2,0.1c1.6,1.1,3.5,1.7,5.3,1.7h0c3,0,5.9-1.4,7.7-4c1.2-1.6,1.7-3.5,1.7-5.4C97.6,91.6,96.2,88.7,93.6,86.9z"/>
	<path class="st1" d="M88.2,54.6c-7.8,0-15,2.2-21.2,6.1C59.7,65.2,54.1,71.9,50.9,80c-1.8,4.5-2.7,9.4-2.7,14.6v9.4h1.1H67v-9.4
		c0-1.1,0.1-2.1,0.2-3.2c1.5-10.2,10.3-18,20.9-18V54.6z"/>
</g>
</svg>
